<mxfile host="app.diagrams.net" modified="2022-01-27T17:52:47.641Z" agent="5.0 (Macintosh)" etag="0VITQRPPrOhIhpRKiPHp" version="16.4.11" type="github">
  <diagram id="C5RBs43oDa-KdzZeNtuy" name="Page-1">
    <mxGraphModel dx="946" dy="535" grid="1" gridSize="10" guides="1" tooltips="1" connect="1" arrows="1" fold="1" page="1" pageScale="1" pageWidth="827" pageHeight="1169" math="0" shadow="0">
      <root>
        <mxCell id="WIyWlLk6GJQsqaUBKTNV-0" />
        <mxCell id="WIyWlLk6GJQsqaUBKTNV-1" parent="WIyWlLk6GJQsqaUBKTNV-0" />
        <mxCell id="OJD0DWyWejZvtVfnCre9-2" style="edgeStyle=orthogonalEdgeStyle;rounded=0;orthogonalLoop=1;jettySize=auto;html=1;exitX=0.5;exitY=1;exitDx=0;exitDy=0;entryX=0.5;entryY=0;entryDx=0;entryDy=0;" edge="1" parent="WIyWlLk6GJQsqaUBKTNV-1" source="OJD0DWyWejZvtVfnCre9-0" target="OJD0DWyWejZvtVfnCre9-1">
          <mxGeometry relative="1" as="geometry" />
        </mxCell>
        <mxCell id="OJD0DWyWejZvtVfnCre9-0" value="Power ON" style="rounded=1;whiteSpace=wrap;html=1;" vertex="1" parent="WIyWlLk6GJQsqaUBKTNV-1">
          <mxGeometry x="240" y="40" width="120" height="30" as="geometry" />
        </mxCell>
        <mxCell id="OJD0DWyWejZvtVfnCre9-9" style="edgeStyle=orthogonalEdgeStyle;rounded=0;orthogonalLoop=1;jettySize=auto;html=1;exitX=0.5;exitY=1;exitDx=0;exitDy=0;entryX=0.5;entryY=0;entryDx=0;entryDy=0;" edge="1" parent="WIyWlLk6GJQsqaUBKTNV-1" source="OJD0DWyWejZvtVfnCre9-1" target="OJD0DWyWejZvtVfnCre9-8">
          <mxGeometry relative="1" as="geometry" />
        </mxCell>
        <mxCell id="OJD0DWyWejZvtVfnCre9-1" value="Enable Heltec board&#39;s display, serial and LoRa" style="rounded=1;whiteSpace=wrap;html=1;" vertex="1" parent="WIyWlLk6GJQsqaUBKTNV-1">
          <mxGeometry x="250" y="100" width="100" height="60" as="geometry" />
        </mxCell>
        <mxCell id="OJD0DWyWejZvtVfnCre9-8" value="Generate public and private keys" style="rounded=1;whiteSpace=wrap;html=1;shadow=0;fillColor=default;gradientColor=none;gradientDirection=radial;" vertex="1" parent="WIyWlLk6GJQsqaUBKTNV-1">
          <mxGeometry x="240" y="190" width="120" height="60" as="geometry" />
        </mxCell>
      </root>
    </mxGraphModel>
  </diagram>
</mxfile>
